<?xml version="1.0" encoding="utf-8"?>
<!-- Generator: Adobe Illustrator 22.0.1, SVG Export Plug-In . SVG Version: 6.00 Build 0)  -->
<svg version="1.1" id="tardis" xmlns="http://www.w3.org/2000/svg" xmlns:xlink="http://www.w3.org/1999/xlink" x="0px" y="0px"
	 viewBox="0 0 1400 980" style="enable-background:new 0 0 1400 980;" xml:space="preserve">
<style type="text/css">
	.st0{fill:#215785;}
	.st1{fill:#003865;}
	.st2{fill:none;stroke:#003865;stroke-width:12;stroke-miterlimit:10;}
	.st3{fill:none;stroke:#023865;stroke-width:7;stroke-miterlimit:10;}
	.st4{fill:#FFFFFF;}
	.st5{fill:#616A77;}
	.st6{fill:#14273D;}
	.st7{fill:#FFFCDF;}
</style>
<polygon id="tardis-body" class="st0" points="872.8,804.4 872.8,226.8 860.6,226.8 860.6,212 539.5,212 539.5,226.8 527.2,226.8 
	527.2,804.4 514.6,804.4 514.6,838.9 885.3,838.9 885.3,804.4 "/>
<rect id="door-line" x="694.7" y="296.8" class="st1" width="10.7" height="508.1"/>
<rect id="border" x="560" y="284.2" class="st2" width="279" height="514.7"/>
<g id="panels">
	<rect id="panel-6" x="727" y="679.9" class="st3" width="84" height="101"/>
	<rect id="panel-5" x="727" y="557.9" class="st3" width="84" height="101"/>
	<rect id="panel-4" x="727" y="436.9" class="st3" width="84" height="101"/>
	<rect id="panel-3" x="589" y="680.1" class="st3" width="84" height="100.7"/>
	<rect id="panel-2" x="589" y="558.5" class="st3" width="84" height="100.7"/>
	<rect id="panel-1" x="589" y="436.9" class="st3" width="84" height="100.7"/>
</g>
<g id="window-right">
	<rect id="frame-right" x="724.1" y="310.2" class="st4" width="89.9" height="108"/>
	<rect id="pane-right-6_1_" x="785.6" y="367.2" class="st5" width="24.1" height="47.3"/>
	<rect id="pane-right-5_1_" x="756.6" y="367.2" class="st6" width="24.7" height="47.3"/>
	<rect id="pane-right-4_1_" x="728" y="367.2" class="st5" width="24.1" height="47.3"/>
	<rect id="pane-right-3_1_" x="785.6" y="314.6" class="st6" width="24.1" height="47.3"/>
	<rect id="pane-right-2" x="756.6" y="314.6" class="st6" width="24.7" height="47.3"/>
	<rect id="pane-right-1" x="728" y="314.6" class="st6" width="24.1" height="47.3"/>
</g>
<g id="window-left">
	<rect id="frame-left" x="586.3" y="310.2" class="st4" width="89.7" height="108"/>
	<rect id="pane-left-6" x="647.9" y="367.1" class="st5" width="24.1" height="47.5"/>
	<rect id="pane-left-5" x="619" y="367.1" class="st6" width="24.7" height="47.5"/>
	<rect id="pane-left-4" x="590.3" y="367.1" class="st5" width="24.1" height="47.5"/>
	<rect id="pane-left-3" x="647.9" y="314.2" class="st6" width="24.1" height="47.5"/>
	<rect id="pane-left-2" x="619" y="314.2" class="st6" width="24.7" height="47.5"/>
	<rect id="pane-left-1" x="590.3" y="314.2" class="st6" width="24.1" height="47.5"/>
</g>
<g id="lettering">
	<rect id="lettering-base" x="514.7" y="253.8" class="st1" width="370.7" height="43"/>
	<path id="P_1_" class="st4" d="M598.6,276.4c-1,0.9-2.5,1.3-4.4,1.3h-3.7v6.4h-3.7v-17.7h7.6c1.8,0,3.1,0.5,4.2,1.4
		c1,0.9,1.6,2.3,1.6,4.2C600.1,274.1,599.6,275.6,598.6,276.4z M595.7,270.1c-0.5-0.4-1.1-0.6-2-0.6h-3.3v5.2h3.3
		c0.8,0,1.5-0.2,2-0.6s0.7-1.1,0.7-2C596.4,271.1,596.2,270.5,595.7,270.1z"/>
	<path id="O_1_" class="st4" d="M616.7,282.5c-1.3,1.4-3.3,2.1-5.8,2.1s-4.5-0.7-5.8-2.1c-1.8-1.7-2.7-4.1-2.7-7.3
		c0-3.2,0.9-5.7,2.7-7.3c1.3-1.4,3.3-2.1,5.8-2.1s4.5,0.7,5.8,2.1c1.8,1.6,2.7,4.1,2.7,7.3S618.5,280.8,616.7,282.5z M614.4,279.8
		c0.9-1.1,1.3-2.6,1.3-4.6s-0.4-3.5-1.3-4.6c-0.9-1.1-2-1.6-3.5-1.6s-2.6,0.5-3.5,1.6s-1.3,2.6-1.3,4.6s0.4,3.5,1.3,4.6
		c0.9,1.1,2,1.6,3.5,1.6S613.5,280.9,614.4,279.8z"/>
	<path id="L_3_" class="st4" d="M622.2,266.4h3.7v14.5h8.8v3.2h-12.5V266.4z"/>
	<path id="I_1_" class="st4" d="M640.6,284.1h-3.7v-17.7h3.7V284.1z"/>
	<path id="C_2_" class="st4" d="M645.7,268.3c1.4-1.5,3.2-2.2,5.4-2.2c2.9,0,5.1,1,6.5,2.9c0.8,1.1,1.2,2.2,1.2,3.3h-3.7
		c-0.2-0.8-0.5-1.5-0.9-1.9c-0.7-0.8-1.6-1.2-2.9-1.2c-1.3,0-2.4,0.5-3.1,1.6c-0.8,1.1-1.1,2.6-1.1,4.6s0.4,3.5,1.2,4.5
		s1.8,1.5,3.1,1.5s2.2-0.4,2.9-1.3c0.4-0.5,0.7-1.1,0.9-2.1h3.7c-0.3,1.9-1.1,3.5-2.4,4.7c-1.3,1.2-3,1.8-5,1.8
		c-2.5,0-4.5-0.8-5.9-2.4s-2.2-3.9-2.2-6.7C643.3,272.3,644.1,269.9,645.7,268.3z"/>
	<path id="E" class="st4" d="M674.8,269.5h-9.4v3.8h8.6v3.1h-8.6v4.5h9.8v3.2h-13.4v-17.7h13L674.8,269.5L674.8,269.5z"/>
	<path id="P" class="st4" d="M693.9,272.2c-0.5,0.3-1.2,0.5-2.1,0.5H690v2.4h-1.8v-6.6h3.6c0.8,0,1.5,0.2,2,0.5s0.7,0.9,0.7,1.6
		C694.6,271.3,694.4,271.9,693.9,272.2z M692.5,269.8c-0.2-0.1-0.5-0.2-0.9-0.2H690v1.9h1.6c0.4,0,0.7-0.1,0.9-0.2
		c0.2-0.2,0.3-0.4,0.3-0.8S692.8,269.9,692.5,269.8z"/>
	<path id="U" class="st4" d="M696,268.4h1.8v4.1c0,0.5,0.1,0.8,0.2,1c0.2,0.4,0.7,0.6,1.4,0.6s1.2-0.2,1.4-0.6
		c0.1-0.2,0.2-0.5,0.2-1v-4.1h1.8v4.1c0,0.7-0.1,1.3-0.4,1.6c-0.5,0.7-1.5,1.1-3,1.1s-2.5-0.4-3-1.1c-0.3-0.4-0.4-0.9-0.4-1.6V268.4
		z"/>
	<path id="B_1_" class="st4" d="M710.8,269.1c0.3,0.3,0.4,0.6,0.4,1s-0.1,0.7-0.4,1c-0.1,0.1-0.4,0.3-0.6,0.4c0.4,0.1,0.8,0.3,1,0.6
		c0.2,0.3,0.3,0.6,0.3,1s-0.1,0.7-0.4,1.1c-0.2,0.2-0.4,0.4-0.6,0.5c-0.3,0.2-0.6,0.3-1,0.3c-0.4,0.1-0.8,0.1-1.2,0.1h-3.8v-6.6h4.1
		C709.7,268.4,710.4,268.7,710.8,269.1z M706.2,269.6v1.5h2.1c0.4,0,0.7-0.1,0.9-0.2s0.3-0.3,0.3-0.6c0-0.3-0.2-0.5-0.5-0.6
		s-0.6-0.1-1-0.1L706.2,269.6L706.2,269.6z M706.2,272.1v1.8h2.1c0.4,0,0.7,0,0.9-0.1c0.4-0.1,0.6-0.4,0.6-0.8
		c0-0.3-0.2-0.6-0.5-0.7c-0.2-0.1-0.5-0.1-0.8-0.1L706.2,272.1L706.2,272.1z"/>
	<path id="L_2_" class="st4" d="M713,268.4h1.8v5.4h4.2v1.2h-6V268.4z"/>
	<path id="I" class="st4" d="M721.8,275H720v-6.6h1.8V275z"/>
	<path id="C_1_" class="st4" d="M724.2,269.1c0.7-0.5,1.5-0.8,2.6-0.8c1.4,0,2.4,0.4,3.1,1.1c0.4,0.4,0.6,0.8,0.6,1.2h-1.8
		c-0.1-0.3-0.3-0.6-0.4-0.7c-0.3-0.3-0.8-0.4-1.4-0.4c-0.6,0-1.1,0.2-1.5,0.6s-0.5,1-0.5,1.7s0.2,1.3,0.6,1.7
		c0.4,0.4,0.9,0.6,1.5,0.6s1.1-0.2,1.4-0.5c0.2-0.2,0.3-0.4,0.4-0.8h1.8c-0.2,0.7-0.5,1.3-1.2,1.8c-0.6,0.5-1.4,0.7-2.4,0.7
		c-1.2,0-2.1-0.3-2.8-0.9s-1-1.5-1-2.5C723.1,270.6,723.4,269.7,724.2,269.1z"/>
	<path id="C" class="st4" d="M695.3,280.1c0.7-0.5,1.5-0.8,2.6-0.8c1.4,0,2.4,0.4,3.1,1.1c0.4,0.4,0.6,0.8,0.6,1.2h-1.8
		c-0.1-0.3-0.3-0.6-0.4-0.7c-0.3-0.3-0.8-0.4-1.4-0.4c-0.6,0-1.1,0.2-1.5,0.6s-0.5,1-0.5,1.7s0.2,1.3,0.6,1.7
		c0.4,0.4,0.9,0.6,1.5,0.6s1.1-0.2,1.4-0.5c0.2-0.2,0.3-0.4,0.4-0.8h1.8c-0.2,0.7-0.5,1.3-1.2,1.8c-0.6,0.5-1.4,0.7-2.4,0.7
		c-1.2,0-2.1-0.3-2.8-0.9s-1-1.5-1-2.5C694.1,281.7,694.5,280.8,695.3,280.1z"/>
	<path id="A" class="st4" d="M705.4,279.5h2l3,6.6h-1.9l-0.6-1.4h-3.1l-0.6,1.4h-1.8L705.4,279.5z M705.3,283.6h2.2l-1.1-2.6
		L705.3,283.6z"/>
	<path id="L" class="st4" d="M711.5,279.5h1.8v5.4h4.2v1.2h-6V279.5z"/>
	<path id="L_1_" class="st4" d="M718.6,279.5h1.8v5.4h4.2v1.2h-6V279.5z"/>
	<path id="B" class="st4" d="M756.6,268.3c0.5,0.8,0.8,1.7,0.8,2.7c0,1.1-0.3,1.9-0.8,2.6c-0.3,0.4-0.8,0.7-1.3,1
		c0.9,0.3,1.6,0.8,2,1.6c0.5,0.7,0.7,1.6,0.7,2.6s-0.3,2-0.8,2.8c-0.3,0.6-0.8,1-1.3,1.4c-0.6,0.4-1.2,0.7-2,0.9
		c-0.8,0.2-1.6,0.2-2.5,0.2h-8v-17.7h8.5C754.2,266.4,755.7,267.1,756.6,268.3z M747,269.5v3.9h4.3c0.8,0,1.4-0.1,1.9-0.4
		s0.7-0.8,0.7-1.6c0-0.8-0.3-1.4-1-1.6c-0.5-0.2-1.2-0.3-2.1-0.3H747z M747,276.3v4.7h4.3c0.8,0,1.4-0.1,1.8-0.3
		c0.8-0.4,1.2-1.1,1.2-2.2c0-0.9-0.4-1.6-1.1-1.9c-0.4-0.2-1-0.3-1.8-0.3L747,276.3L747,276.3z"/>
	<path id="O" class="st4" d="M774.8,282.5c-1.3,1.4-3.3,2.1-5.8,2.1s-4.5-0.7-5.8-2.1c-1.8-1.7-2.7-4.1-2.7-7.3
		c0-3.2,0.9-5.7,2.7-7.3c1.3-1.4,3.3-2.1,5.8-2.1s4.5,0.7,5.8,2.1c1.8,1.6,2.7,4.1,2.7,7.3C777.4,278.4,776.6,280.8,774.8,282.5z
		 M772.5,279.8c0.9-1.1,1.3-2.6,1.3-4.6s-0.4-3.5-1.3-4.6c-0.9-1.1-2-1.6-3.5-1.6s-2.6,0.5-3.5,1.6s-1.3,2.6-1.3,4.6
		s0.4,3.5,1.3,4.6c0.9,1.1,2,1.6,3.5,1.6S771.6,280.9,772.5,279.8z"/>
	<path id="X" class="st4" d="M783.1,284.1h-4.3l5.7-9l-5.4-8.7h4.4l3.2,5.8l3.2-5.8h4.3l-5.4,8.5l5.7,9.2H790l-3.4-6L783.1,284.1z"
		/>
</g>
<g id="light_1_">
	<path id="light-case" class="st0" d="M678.4,198.3l-7.3,0v13.8l57.9,0v-13.8h-7.3l0-34.2h3.4v-8.8c0-10.4-8.4-18.8-18.8-18.8h-12.6
		c-10.4,0-18.8,8.4-18.8,18.8v8.8h3.6V198.3z"/>
	<rect id="light-bulb" x="682.7" y="163.9" class="st7" width="34.1" height="34.4"/>
</g>
</svg>
