<?xml version="1.0" encoding="utf-8"?>
<!-- Generator: Adobe Illustrator 22.0.1, SVG Export Plug-In . SVG Version: 6.00 Build 0)  -->
<svg version="1.1" id="tardis" xmlns="http://www.w3.org/2000/svg" xmlns:xlink="http://www.w3.org/1999/xlink" x="0px" y="0px"
	 viewBox="0 0 146.8 266.2" style="enable-background:new 0 0 146.8 266.2;" xml:space="preserve">
<style type="text/css">
	.st0{fill:#215785;}
	.st1{fill:#003865;}
	.st2{fill:none;stroke:#003865;stroke-width:5;stroke-miterlimit:10;}
	.st3{fill:none;stroke:#023865;stroke-width:3;stroke-miterlimit:10;}
	.st4{fill:#FFFFFF;}
	.st5{fill:#616A77;}
	.st6{fill:#14273D;}
</style>
<polygon id="tardis-body" class="st0" points="148.8,268.3 148.8,-1 143.5,-1 143.5,-7.9 3.2,-7.9 3.2,-1 -2.2,-1 -2.2,268.3 "/>
<rect id="door-line" x="71.1" y="36" class="st1" width="4.5" height="215.8"/>
<rect id="border" x="13.9" y="31.7" class="st2" width="118.5" height="222.5"/>
<g id="panels">
	<rect id="panel-6" x="84.9" y="198.8" class="st3" width="35.7" height="42.9"/>
	<rect id="panel-5" x="84.9" y="146.9" class="st3" width="35.7" height="42.9"/>
	<rect id="panel-4" x="84.9" y="95.5" class="st3" width="35.7" height="42.9"/>
	<rect id="panel-3" x="26.3" y="198.9" class="st3" width="35.7" height="42.8"/>
	<rect id="panel-2" x="26.3" y="147.2" class="st3" width="35.7" height="42.8"/>
	<rect id="panel-1" x="26.3" y="95.5" class="st3" width="35.7" height="42.8"/>
</g>
<g id="window-right">
	<rect id="frame-right" x="83.6" y="41.7" class="st4" width="38.2" height="45.9"/>
	<rect id="pane-right-6_1_" x="109.8" y="65.9" class="st5" width="10.2" height="20.1"/>
	<rect id="pane-right-5_1_" x="97.5" y="65.9" class="st6" width="10.5" height="20.1"/>
	<rect id="pane-right-4_1_" x="85.3" y="65.9" class="st5" width="10.2" height="20.1"/>
	<rect id="pane-right-3_1_" x="109.8" y="43.6" class="st6" width="10.2" height="20.1"/>
	<rect id="pane-right-2" x="97.5" y="43.6" class="st6" width="10.5" height="20.1"/>
	<rect id="pane-right-1" x="85.3" y="43.6" class="st6" width="10.2" height="20.1"/>
</g>
<g id="window-left">
	<rect id="frame-left" x="25.1" y="41.7" class="st4" width="38.1" height="45.9"/>
	<rect id="pane-left-6" x="51.3" y="65.9" class="st5" width="10.2" height="20.2"/>
	<rect id="pane-left-5" x="39" y="65.9" class="st6" width="10.5" height="20.2"/>
	<rect id="pane-left-4" x="26.8" y="65.9" class="st5" width="10.2" height="20.2"/>
	<rect id="pane-left-3" x="51.3" y="43.4" class="st6" width="10.2" height="20.2"/>
	<rect id="pane-left-2" x="39" y="43.4" class="st6" width="10.5" height="20.2"/>
	<rect id="pane-left-1" x="26.8" y="43.4" class="st6" width="10.2" height="20.2"/>
</g>
<g id="lettering">
	<rect id="lettering-base" x="-0.7" y="17.8" class="st1" width="148.5" height="18.3"/>
	<path id="P_1_" class="st4" d="M28.9,27.4c-0.4,0.4-1,0.6-1.8,0.6h-1.5v2.7H24v-7.5h3.2c0.7,0,1.3,0.2,1.7,0.6
		c0.4,0.4,0.7,1,0.7,1.8C29.5,26.4,29.3,27,28.9,27.4z M27.7,24.7c-0.2-0.2-0.5-0.3-0.8-0.3h-1.4v2.2h1.4c0.3,0,0.6-0.1,0.8-0.3
		s0.3-0.5,0.3-0.8C28,25.1,27.9,24.9,27.7,24.7z"/>
	<path id="O_1_" class="st4" d="M36.4,29.9c-0.5,0.6-1.4,0.9-2.4,0.9c-1,0-1.9-0.3-2.4-0.9c-0.7-0.7-1.1-1.7-1.1-3.1
		c0-1.4,0.4-2.4,1.1-3.1c0.5-0.6,1.4-0.9,2.4-0.9c1,0,1.9,0.3,2.4,0.9c0.7,0.7,1.1,1.7,1.1,3.1C37.5,28.2,37.1,29.2,36.4,29.9z
		 M35.4,28.8c0.4-0.5,0.5-1.1,0.5-2c0-0.8-0.2-1.5-0.5-2c-0.4-0.5-0.8-0.7-1.5-0.7c-0.6,0-1.1,0.2-1.5,0.7c-0.4,0.5-0.5,1.1-0.5,2
		c0,0.8,0.2,1.5,0.5,2c0.4,0.5,0.8,0.7,1.5,0.7C34.6,29.5,35,29.3,35.4,28.8z"/>
	<path id="L_3_" class="st4" d="M38.7,23.1h1.5v6.2h3.7v1.4h-5.2V23.1z"/>
	<path id="I_1_" class="st4" d="M46.3,30.6h-1.5v-7.5h1.5V30.6z"/>
	<path id="C_2_" class="st4" d="M48.4,23.9c0.6-0.6,1.3-0.9,2.2-0.9c1.2,0,2.1,0.4,2.7,1.2c0.3,0.5,0.5,0.9,0.5,1.4h-1.5
		c-0.1-0.3-0.2-0.6-0.4-0.8c-0.3-0.3-0.7-0.5-1.2-0.5c-0.5,0-1,0.2-1.3,0.7c-0.3,0.5-0.5,1.1-0.5,2s0.2,1.5,0.5,1.9
		c0.3,0.4,0.7,0.6,1.3,0.6s0.9-0.2,1.2-0.6c0.2-0.2,0.3-0.5,0.4-0.9h1.5c-0.1,0.8-0.5,1.5-1,2c-0.5,0.5-1.2,0.8-2.1,0.8
		c-1,0-1.9-0.3-2.4-1c-0.6-0.7-0.9-1.7-0.9-2.8C47.4,25.6,47.7,24.6,48.4,23.9z"/>
	<path id="E" class="st4" d="M60.5,24.4h-3.9V26h3.6v1.3h-3.6v1.9h4.1v1.4h-5.6v-7.5h5.4L60.5,24.4L60.5,24.4z"/>
	<path id="P" class="st4" d="M68.4,25.6c-0.2,0.1-0.5,0.2-0.9,0.2h-0.7v1H66V24h1.5c0.3,0,0.6,0.1,0.8,0.2c0.2,0.1,0.3,0.4,0.3,0.7
		C68.7,25.2,68.6,25.4,68.4,25.6z M67.8,24.6c-0.1,0-0.2-0.1-0.4-0.1h-0.7v0.8h0.7c0.2,0,0.3,0,0.4-0.1c0.1-0.1,0.1-0.2,0.1-0.3
		S67.9,24.6,67.8,24.6z"/>
	<path id="U" class="st4" d="M69.3,24H70v1.7c0,0.2,0,0.3,0.1,0.4c0.1,0.2,0.3,0.3,0.6,0.3s0.5-0.1,0.6-0.3c0-0.1,0.1-0.2,0.1-0.4
		V24h0.7v1.7c0,0.3,0,0.6-0.2,0.7c-0.2,0.3-0.6,0.5-1.2,0.5s-1-0.2-1.2-0.5c-0.1-0.2-0.2-0.4-0.2-0.7V24z"/>
	<path id="B_1_" class="st4" d="M75.4,24.3c0.1,0.1,0.2,0.3,0.2,0.4c0,0.2,0,0.3-0.2,0.4c0,0-0.2,0.1-0.2,0.2c0.2,0,0.3,0.1,0.4,0.3
		c0.1,0.1,0.1,0.3,0.1,0.4s0,0.3-0.2,0.5c-0.1,0.1-0.2,0.2-0.2,0.2c-0.1,0.1-0.2,0.1-0.4,0.1c-0.2,0-0.3,0-0.5,0h-1.6V24h1.7
		C74.9,24,75.2,24.1,75.4,24.3z M73.5,24.5v0.6h0.9c0.2,0,0.3,0,0.4-0.1c0.1,0,0.1-0.1,0.1-0.3c0-0.1-0.1-0.2-0.2-0.3
		c-0.1,0-0.2,0-0.4,0L73.5,24.5L73.5,24.5z M73.5,25.5v0.8h0.9c0.2,0,0.3,0,0.4,0c0.2,0,0.2-0.2,0.2-0.3c0-0.1-0.1-0.3-0.2-0.3
		c-0.1,0-0.2,0-0.3,0L73.5,25.5L73.5,25.5z"/>
	<path id="L_2_" class="st4" d="M76.3,24h0.7v2.3h1.7v0.5h-2.5V24z"/>
	<path id="I" class="st4" d="M80,26.8h-0.7V24H80V26.8z"/>
	<path id="C_1_" class="st4" d="M81,24.3c0.3-0.2,0.6-0.3,1.1-0.3c0.6,0,1,0.2,1.3,0.5c0.2,0.2,0.2,0.3,0.2,0.5h-0.7
		c0-0.1-0.1-0.3-0.2-0.3c-0.1-0.1-0.3-0.2-0.6-0.2c-0.2,0-0.5,0.1-0.6,0.3c-0.2,0.2-0.2,0.4-0.2,0.7s0.1,0.6,0.2,0.7
		c0.2,0.2,0.4,0.3,0.6,0.3s0.5-0.1,0.6-0.2c0.1-0.1,0.1-0.2,0.2-0.3h0.7c-0.1,0.3-0.2,0.6-0.5,0.8c-0.2,0.2-0.6,0.3-1,0.3
		c-0.5,0-0.9-0.1-1.2-0.4c-0.3-0.3-0.4-0.6-0.4-1.1C80.5,24.9,80.6,24.5,81,24.3z"/>
	<path id="C" class="st4" d="M69,28.9c0.3-0.2,0.6-0.3,1.1-0.3c0.6,0,1,0.2,1.3,0.5c0.2,0.2,0.2,0.3,0.2,0.5h-0.7
		c0-0.1-0.1-0.3-0.2-0.3c-0.1-0.1-0.3-0.2-0.6-0.2c-0.2,0-0.5,0.1-0.6,0.3c-0.2,0.2-0.2,0.4-0.2,0.7s0.1,0.6,0.2,0.7
		c0.2,0.2,0.4,0.3,0.6,0.3s0.5-0.1,0.6-0.2c0.1-0.1,0.1-0.2,0.2-0.3h0.7c-0.1,0.3-0.2,0.6-0.5,0.8c-0.2,0.2-0.6,0.3-1,0.3
		c-0.5,0-0.9-0.1-1.2-0.4c-0.3-0.3-0.4-0.6-0.4-1.1C68.5,29.6,68.6,29.2,69,28.9z"/>
	<path id="A" class="st4" d="M73.2,28.7H74l1.2,2.8h-0.8l-0.2-0.6h-1.3l-0.2,0.6h-0.7L73.2,28.7z M73.1,30.4H74l-0.5-1.1L73.1,30.4z
		"/>
	<path id="L" class="st4" d="M75.7,28.7h0.7V31h1.7v0.5h-2.5V28.7z"/>
	<path id="L_1_" class="st4" d="M78.6,28.7h0.7V31h1.7v0.5h-2.5V28.7z"/>
	<path id="B" class="st4" d="M94.4,23.9c0.2,0.3,0.3,0.7,0.3,1.1c0,0.5-0.1,0.8-0.3,1.1c-0.1,0.2-0.3,0.3-0.5,0.4
		c0.4,0.1,0.7,0.3,0.8,0.7c0.2,0.3,0.3,0.7,0.3,1.1c0,0.4-0.1,0.8-0.3,1.2c-0.1,0.3-0.3,0.4-0.5,0.6c-0.2,0.2-0.5,0.3-0.8,0.4
		c-0.3,0.1-0.7,0.1-1,0.1h-3.3v-7.5h3.5C93.4,23.1,94,23.4,94.4,23.9z M90.4,24.4v1.7h1.8c0.3,0,0.6,0,0.8-0.2
		c0.2-0.1,0.3-0.3,0.3-0.7c0-0.3-0.1-0.6-0.4-0.7c-0.2-0.1-0.5-0.1-0.9-0.1H90.4z M90.4,27.3v2h1.8c0.3,0,0.6,0,0.7-0.1
		c0.3-0.2,0.5-0.5,0.5-0.9c0-0.4-0.2-0.7-0.5-0.8c-0.2-0.1-0.4-0.1-0.7-0.1L90.4,27.3L90.4,27.3z"/>
	<path id="O" class="st4" d="M102,29.9c-0.5,0.6-1.4,0.9-2.4,0.9s-1.9-0.3-2.4-0.9c-0.7-0.7-1.1-1.7-1.1-3.1c0-1.4,0.4-2.4,1.1-3.1
		c0.5-0.6,1.4-0.9,2.4-0.9s1.9,0.3,2.4,0.9c0.7,0.7,1.1,1.7,1.1,3.1C103,28.2,102.7,29.2,102,29.9z M101,28.8c0.4-0.5,0.5-1.1,0.5-2
		c0-0.8-0.2-1.5-0.5-2c-0.4-0.5-0.8-0.7-1.5-0.7s-1.1,0.2-1.5,0.7c-0.4,0.5-0.5,1.1-0.5,2c0,0.8,0.2,1.5,0.5,2
		c0.4,0.5,0.8,0.7,1.5,0.7S100.6,29.3,101,28.8z"/>
	<path id="X" class="st4" d="M105.4,30.6h-1.8l2.4-3.8l-2.2-3.7h1.8l1.3,2.5l1.3-2.5h1.8l-2.2,3.6l2.4,3.9h-1.9l-1.4-2.5L105.4,30.6
		z"/>
</g>
</svg>
