<?xml version="1.0" encoding="utf-8"?>
<!-- Generator: Adobe Illustrator 22.0.1, SVG Export Plug-In . SVG Version: 6.00 Build 0)  -->
<svg version="1.1" id="tardis" xmlns="http://www.w3.org/2000/svg" xmlns:xlink="http://www.w3.org/1999/xlink" x="0px" y="0px"
	 viewBox="0 0 157.5 298.4" style="enable-background:new 0 0 157.5 298.4;" xml:space="preserve">
<style type="text/css">
	.st0{fill:#215785;}
	.st1{fill:#003865;}
	.st2{fill:none;stroke:#003865;stroke-width:12;stroke-miterlimit:10;}
	.st3{fill:none;stroke:#023865;stroke-width:7;stroke-miterlimit:10;}
	.st4{fill:#FFFFFF;}
	.st5{fill:#616A77;}
	.st6{fill:#14273D;}
	.st7{fill:#FFFCDF;}
</style>
<polygon id="tardis-body" class="st0" points="152.2,283.7 152.2,38.4 147,38.4 147,32.1 10.6,32.1 10.6,38.4 5.4,38.4 5.4,283.7 
	0,283.7 0,298.4 157.5,298.4 157.5,283.7 "/>
<rect id="door-line" x="76.5" y="68.1" class="st1" width="4.5" height="215.8"/>
<rect id="border" x="19.3" y="62.7" class="st2" width="118.5" height="218.6"/>
<g id="panels">
	<rect id="panel-6" x="90.2" y="230.8" class="st3" width="35.7" height="42.9"/>
	<rect id="panel-5" x="90.2" y="179" class="st3" width="35.7" height="42.9"/>
	<rect id="panel-4" x="90.2" y="127.6" class="st3" width="35.7" height="42.9"/>
	<rect id="panel-3" x="31.6" y="230.9" class="st3" width="35.7" height="42.8"/>
	<rect id="panel-2" x="31.6" y="179.3" class="st3" width="35.7" height="42.8"/>
	<rect id="panel-1" x="31.6" y="127.6" class="st3" width="35.7" height="42.8"/>
</g>
<g id="window-right">
	<rect id="frame-right" x="89" y="73.8" class="st4" width="38.2" height="45.9"/>
	<rect id="pane-right-6_1_" x="115.1" y="98" class="st5" width="10.2" height="20.1"/>
	<rect id="pane-right-5_1_" x="102.8" y="98" class="st6" width="10.5" height="20.1"/>
	<rect id="pane-right-4_1_" x="90.7" y="98" class="st5" width="10.2" height="20.1"/>
	<rect id="pane-right-3_1_" x="115.1" y="75.6" class="st6" width="10.2" height="20.1"/>
	<rect id="pane-right-2" x="102.8" y="75.6" class="st6" width="10.5" height="20.1"/>
	<rect id="pane-right-1" x="90.7" y="75.6" class="st6" width="10.2" height="20.1"/>
</g>
<g id="window-left">
	<rect id="frame-left" x="30.5" y="73.8" class="st4" width="38.1" height="45.9"/>
	<rect id="pane-left-6" x="56.6" y="98" class="st5" width="10.2" height="20.2"/>
	<rect id="pane-left-5" x="44.3" y="98" class="st6" width="10.5" height="20.2"/>
	<rect id="pane-left-4" x="32.2" y="98" class="st5" width="10.2" height="20.2"/>
	<rect id="pane-left-3" x="56.6" y="75.5" class="st6" width="10.2" height="20.2"/>
	<rect id="pane-left-2" x="44.3" y="75.5" class="st6" width="10.5" height="20.2"/>
	<rect id="pane-left-1" x="32.2" y="75.5" class="st6" width="10.2" height="20.2"/>
</g>
<g id="lettering">
	<rect id="lettering-base" x="0" y="49.8" class="st1" width="157.5" height="18.3"/>
	<path id="P_1_" class="st4" d="M35.7,59.4c-0.4,0.4-1.1,0.6-1.9,0.6h-1.6v2.7h-1.6v-7.5h3.2c0.8,0,1.3,0.2,1.8,0.6
		c0.4,0.4,0.7,1,0.7,1.8C36.3,58.5,36.1,59.1,35.7,59.4z M34.5,56.8c-0.2-0.2-0.5-0.3-0.8-0.3h-1.4v2.2h1.4c0.3,0,0.6-0.1,0.8-0.3
		c0.2-0.2,0.3-0.5,0.3-0.8C34.7,57.2,34.7,56.9,34.5,56.8z"/>
	<path id="O_1_" class="st4" d="M43.4,62c-0.6,0.6-1.4,0.9-2.5,0.9c-1.1,0-1.9-0.3-2.5-0.9c-0.8-0.7-1.1-1.7-1.1-3.1
		c0-1.4,0.4-2.4,1.1-3.1c0.6-0.6,1.4-0.9,2.5-0.9c1.1,0,1.9,0.3,2.5,0.9c0.8,0.7,1.1,1.7,1.1,3.1S44.1,61.3,43.4,62z M42.4,60.9
		c0.4-0.5,0.6-1.1,0.6-2c0-0.8-0.2-1.5-0.6-2c-0.4-0.5-0.8-0.7-1.5-0.7s-1.1,0.2-1.5,0.7c-0.4,0.5-0.6,1.1-0.6,2
		c0,0.8,0.2,1.5,0.6,2c0.4,0.5,0.8,0.7,1.5,0.7S42,61.3,42.4,60.9z"/>
	<path id="L_3_" class="st4" d="M45.7,55.2h1.6v6.2H51v1.4h-5.3V55.2z"/>
	<path id="I_1_" class="st4" d="M53.5,62.7H52v-7.5h1.6V62.7z"/>
	<path id="C_2_" class="st4" d="M55.7,56c0.6-0.6,1.4-0.9,2.3-0.9c1.2,0,2.2,0.4,2.8,1.2c0.3,0.5,0.5,0.9,0.5,1.4h-1.6
		c-0.1-0.3-0.2-0.6-0.4-0.8c-0.3-0.3-0.7-0.5-1.2-0.5c-0.6,0-1,0.2-1.3,0.7c-0.3,0.5-0.5,1.1-0.5,2c0,0.8,0.2,1.5,0.5,1.9
		s0.8,0.6,1.3,0.6s0.9-0.2,1.2-0.6c0.2-0.2,0.3-0.5,0.4-0.9h1.6c-0.1,0.8-0.5,1.5-1,2c-0.6,0.5-1.3,0.8-2.1,0.8
		c-1.1,0-1.9-0.3-2.5-1c-0.6-0.7-0.9-1.7-0.9-2.8C54.7,57.7,55,56.7,55.7,56z"/>
	<path id="E" class="st4" d="M68.1,56.5h-4v1.6h3.7v1.3h-3.7v1.9h4.2v1.4h-5.7v-7.5h5.5L68.1,56.5L68.1,56.5z"/>
	<path id="P" class="st4" d="M76.2,57.6c-0.2,0.1-0.5,0.2-0.9,0.2h-0.8v1h-0.8v-2.8h1.5c0.3,0,0.6,0.1,0.8,0.2
		c0.2,0.1,0.3,0.4,0.3,0.7C76.5,57.3,76.4,57.5,76.2,57.6z M75.6,56.6c-0.1,0-0.2-0.1-0.4-0.1h-0.7v0.8h0.7c0.2,0,0.3,0,0.4-0.1
		c0.1-0.1,0.1-0.2,0.1-0.3S75.7,56.7,75.6,56.6z"/>
	<path id="U" class="st4" d="M77.1,56h0.8v1.7c0,0.2,0,0.3,0.1,0.4c0.1,0.2,0.3,0.3,0.6,0.3c0.3,0,0.5-0.1,0.6-0.3
		c0-0.1,0.1-0.2,0.1-0.4V56h0.8v1.7c0,0.3,0,0.6-0.2,0.7c-0.2,0.3-0.6,0.5-1.3,0.5c-0.6,0-1.1-0.2-1.3-0.5c-0.1-0.2-0.2-0.4-0.2-0.7
		V56z"/>
	<path id="B_1_" class="st4" d="M83.3,56.3c0.1,0.1,0.2,0.3,0.2,0.4s0,0.3-0.2,0.4c0,0-0.2,0.1-0.3,0.2c0.2,0,0.3,0.1,0.4,0.3
		c0.1,0.1,0.1,0.3,0.1,0.4s0,0.3-0.2,0.5c-0.1,0.1-0.2,0.2-0.3,0.2c-0.1,0.1-0.3,0.1-0.4,0.1c-0.2,0-0.3,0-0.5,0h-1.6v-2.8h1.7
		C82.9,56,83.2,56.2,83.3,56.3z M81.4,56.5v0.6h0.9c0.2,0,0.3,0,0.4-0.1c0.1,0,0.1-0.1,0.1-0.3c0-0.1-0.1-0.2-0.2-0.3
		c-0.1,0-0.3,0-0.4,0L81.4,56.5L81.4,56.5z M81.4,57.6v0.8h0.9c0.2,0,0.3,0,0.4,0c0.2,0,0.3-0.2,0.3-0.3c0-0.1-0.1-0.3-0.2-0.3
		c-0.1,0-0.2,0-0.3,0L81.4,57.6L81.4,57.6z"/>
	<path id="L_2_" class="st4" d="M84.3,56H85v2.3h1.8v0.5h-2.5V56z"/>
	<path id="I" class="st4" d="M88,58.8h-0.8V56H88V58.8z"/>
	<path id="C_1_" class="st4" d="M89,56.3c0.3-0.2,0.6-0.3,1.1-0.3c0.6,0,1,0.2,1.3,0.5c0.2,0.2,0.3,0.3,0.3,0.5H91
		c0-0.1-0.1-0.3-0.2-0.3c-0.1-0.1-0.3-0.2-0.6-0.2c-0.3,0-0.5,0.1-0.6,0.3s-0.2,0.4-0.2,0.7c0,0.3,0.1,0.6,0.3,0.7
		c0.2,0.2,0.4,0.3,0.6,0.3s0.5-0.1,0.6-0.2c0.1-0.1,0.1-0.2,0.2-0.3h0.8c-0.1,0.3-0.2,0.6-0.5,0.8c-0.3,0.2-0.6,0.3-1,0.3
		c-0.5,0-0.9-0.1-1.2-0.4c-0.3-0.3-0.4-0.6-0.4-1.1C88.6,57,88.7,56.6,89,56.3z"/>
	<path id="C" class="st4" d="M76.8,61c0.3-0.2,0.6-0.3,1.1-0.3c0.6,0,1,0.2,1.3,0.5c0.2,0.2,0.3,0.3,0.3,0.5h-0.8
		c0-0.1-0.1-0.3-0.2-0.3c-0.1-0.1-0.3-0.2-0.6-0.2c-0.3,0-0.5,0.1-0.6,0.3c-0.2,0.2-0.2,0.4-0.2,0.7c0,0.3,0.1,0.6,0.3,0.7
		c0.2,0.2,0.4,0.3,0.6,0.3s0.5-0.1,0.6-0.2c0.1-0.1,0.1-0.2,0.2-0.3h0.8c-0.1,0.3-0.2,0.6-0.5,0.8c-0.3,0.2-0.6,0.3-1,0.3
		c-0.5,0-0.9-0.1-1.2-0.4c-0.3-0.3-0.4-0.6-0.4-1.1C76.3,61.7,76.4,61.3,76.8,61z"/>
	<path id="A" class="st4" d="M81.1,60.7h0.8l1.3,2.8h-0.8L82.1,63h-1.3l-0.3,0.6h-0.8L81.1,60.7z M81,62.5h0.9l-0.5-1.1L81,62.5z"/>
	<path id="L" class="st4" d="M83.6,60.7h0.8V63h1.8v0.5h-2.5V60.7z"/>
	<path id="L_1_" class="st4" d="M86.7,60.7h0.8V63h1.8v0.5h-2.5V60.7z"/>
	<path id="B" class="st4" d="M102.8,56c0.2,0.3,0.3,0.7,0.3,1.1c0,0.5-0.1,0.8-0.3,1.1c-0.1,0.2-0.3,0.3-0.6,0.4
		c0.4,0.1,0.7,0.3,0.8,0.7c0.2,0.3,0.3,0.7,0.3,1.1s-0.1,0.8-0.3,1.2c-0.1,0.3-0.3,0.4-0.6,0.6c-0.3,0.2-0.5,0.3-0.8,0.4
		c-0.3,0.1-0.7,0.1-1.1,0.1h-3.4v-7.5h3.6C101.8,55.2,102.4,55.5,102.8,56z M98.7,56.5v1.7h1.8c0.3,0,0.6,0,0.8-0.2
		c0.2-0.1,0.3-0.3,0.3-0.7c0-0.3-0.1-0.6-0.4-0.7c-0.2-0.1-0.5-0.1-0.9-0.1H98.7z M98.7,59.4v2h1.8c0.3,0,0.6,0,0.8-0.1
		c0.3-0.2,0.5-0.5,0.5-0.9c0-0.4-0.2-0.7-0.5-0.8c-0.2-0.1-0.4-0.1-0.8-0.1L98.7,59.4L98.7,59.4z"/>
	<path id="O" class="st4" d="M110.5,62c-0.6,0.6-1.4,0.9-2.5,0.9s-1.9-0.3-2.5-0.9c-0.8-0.7-1.1-1.7-1.1-3.1c0-1.4,0.4-2.4,1.1-3.1
		c0.6-0.6,1.4-0.9,2.5-0.9s1.9,0.3,2.5,0.9c0.8,0.7,1.1,1.7,1.1,3.1C111.6,60.3,111.3,61.3,110.5,62z M109.6,60.9
		c0.4-0.5,0.6-1.1,0.6-2c0-0.8-0.2-1.5-0.6-2c-0.4-0.5-0.8-0.7-1.5-0.7s-1.1,0.2-1.5,0.7c-0.4,0.5-0.6,1.1-0.6,2
		c0,0.8,0.2,1.5,0.6,2c0.4,0.5,0.8,0.7,1.5,0.7S109.2,61.3,109.6,60.9z"/>
	<path id="X" class="st4" d="M114.1,62.7h-1.8l2.4-3.8l-2.3-3.7h1.9l1.4,2.5l1.4-2.5h1.8l-2.3,3.6l2.4,3.9H117l-1.4-2.5L114.1,62.7z
		"/>
</g>
<g id="light_1_">
	<path id="light-case" class="st0" d="M69.6,26.3l-3.1,0v5.9l24.6,0v-5.8h-3.1l0-14.5h1.4V8c0-4.4-3.6-8-8-8H76c-4.4,0-8,3.6-8,8
		v3.7h1.5V26.3z"/>
	<rect id="light-bulb" x="71.4" y="11.6" class="st7" width="14.5" height="14.6"/>
</g>
</svg>
